<svg width="62" height="62" viewBox="0 0 62 62" fill="none" xmlns="http://www.w3.org/2000/svg">
<path d="M48.2858 22.9959C47.1425 22.9959 46.0912 23.398 45.2662 24.0683C44.744 21.9854 42.856 20.4384 40.6132 20.4384C39.5351 20.4384 38.539 20.7959 37.7371 21.3987C37.7371 18.7538 35.5854 16.6021 32.9407 16.6021C31.8626 16.6021 30.8665 16.9596 30.0646 17.5624V9.88966C30.0646 7.24486 27.9129 5.09326 25.2682 5.09326C22.6235 5.09326 20.4718 7.24498 20.4718 9.88966V32.5076L17.6351 29.6708C14.1172 26.1529 11.0909 28.5287 10.5939 28.9662C8.19737 30.7902 8.79267 33.4165 9.78588 34.7509L20.4758 49.8426C20.5619 53.035 21.9723 56.0534 24.4691 58.3722C26.9518 60.6778 30.2725 62.0001 33.5801 62.0001H41.2527C44.5582 62.0001 47.5852 60.6932 49.7761 58.32C51.9081 56.0109 53.0822 52.8895 53.0822 49.531V27.7923C53.0822 25.1475 50.9305 22.9959 48.2858 22.9959ZM41.2527 60.0799H33.5801C30.7517 60.0799 27.9073 58.9446 25.7762 56.9652C23.594 54.9385 22.3921 52.2983 22.3921 49.531V49.2255L11.3459 33.6312L11.3306 33.6101C11.1932 33.4269 10.0387 31.7831 11.778 30.4786L11.8325 30.4377L11.8808 30.3894C11.8853 30.3849 12.3585 29.9371 13.0962 29.7668C13.2828 29.7239 13.4704 29.7023 13.6591 29.7023C14.517 29.7023 15.3953 30.1466 16.2775 31.0286L22.3921 37.1433V9.88966C22.3921 8.3037 23.6824 7.01357 25.2682 7.01357C26.854 7.01357 28.1443 8.30382 28.1443 9.88966V29.0709H30.0645V21.3983C30.0645 19.8123 31.3547 18.5222 32.9406 18.5222C34.5265 18.5222 35.8167 19.8124 35.8167 21.3983V32.9072H37.7369V25.2345C37.7369 23.6486 39.0271 22.3584 40.613 22.3584C42.1988 22.3584 43.4891 23.6487 43.4891 25.2345V36.7434H45.4092V27.792C45.4092 26.2061 46.6995 24.9159 48.2853 24.9159C49.8712 24.9159 51.1614 26.2062 51.1614 27.792V49.5312H51.1617C51.1619 55.5449 46.9018 60.0799 41.2527 60.0799Z" fill="#D4D4D4"/>
<path d="M25.2682 0C18.3928 0 12.7993 5.57164 12.7993 12.4471C12.7993 15.9885 14.3135 19.3754 16.9536 21.7392L18.2345 20.3142C16.0007 18.314 14.7195 15.4541 14.7195 12.4581C14.7196 6.64151 19.4517 1.9203 25.2683 1.9203C31.085 1.9203 35.8171 6.60215 35.8171 12.4909H37.7372C37.7371 5.57806 32.1437 0 25.2682 0Z" fill="#D4D4D4"/>
</svg>
